<?xml version='1.0' encoding='utf-8'?>
<svg xmlns="http://www.w3.org/2000/svg" class="prefecture-svg-map" viewBox="0 0 1000 1000">
 <title>福島の地図</title>
 <desc>Adapted from Geolonia / Wikipedia. GFDL. Some remote islands omitted.</desc>
 <g transform="matrix(8.60215054 0 0 8.60215054 -5009.67741935 -4218.97849462)">
  <g class="fukushima tohoku prefecture" data-code="7" stroke-linejoin="round" fill="#EEEEEE" fill-rule="nonzero" stroke="#000000" stroke-width="1.0" transform="translate(594.000000, 511.000000)" data-anchor-x="500.000" data-anchor-y="495.000">
   <title>福島 / Fukushima</title>
   <polygon points="82 69 72 64 72 68 66 74 56 65 55 59 49 55 37 52 12 68 4 66 5 52 0 47 4 41 2 37 3 34 12 33 13 30 21 30 19 21 28 11 25 9 32 11 38 10 40 14 44 13 47 15 53 14 56 10 54 9 55 0 61 0 65 4 74 4 75 10 80 12 79 10 83 10 83 4 87 4 93 18 93 45 91 61" vector-effect="non-scaling-stroke" />
  </g>
 </g>
</svg>