<?xml version='1.0' encoding='utf-8'?>
<svg xmlns="http://www.w3.org/2000/svg" class="prefecture-svg-map" viewBox="0 0 1000 1000">
 <title>神奈川の地図</title>
 <desc>Adapted from Geolonia / Wikipedia. GFDL. Some remote islands omitted.</desc>
 <g transform="matrix(18.18181818 0 0 18.18181818 -10518.18181818 -11741.36363636)">
  <g class="kanagawa kanto prefecture" data-code="14" stroke-linejoin="round" fill="#EEEEEE" fill-rule="nonzero" stroke="#000000" stroke-width="1.0" transform="translate(584.000000, 656.000000)" data-anchor-x="500.000" data-anchor-y="495.000">
   <title>神奈川 / Kanagawa</title>
   <polygon points="10 0 24 6 28 11 28 6 30 6 27 4 30 2 44 9 40 13 36 12 39 16 36 16 36 23 42 26 38 30 39 33 35 33 36 28 33 24 26 22 15 25 11 28 12 34 10 34 4 30 4 17 0 17 9 9" vector-effect="non-scaling-stroke" />
  </g>
 </g>
</svg>